<svg width="730" height="259" viewBox="0 0 730 259" fill="none" xmlns="http://www.w3.org/2000/svg">
<path d="M656.615 152.727C656.615 147.972 660.611 143.931 665.42 143.931C670.227 143.931 674.223 147.925 674.223 152.727C674.223 157.481 670.227 161.523 665.42 161.523C660.611 161.523 656.615 157.481 656.615 152.727Z" fill="#EBF0FE"/>
<path d="M684.504 152.727C684.504 147.972 688.5 143.931 693.306 143.931C698.115 143.931 702.111 147.925 702.111 152.727C702.111 157.481 698.115 161.523 693.306 161.523C688.5 161.523 684.504 157.481 684.504 152.727Z" fill="#EBF0FE"/>
<path d="M712.393 152.727C712.393 147.972 716.389 143.931 721.195 143.931C726.001 143.931 730 147.925 730 152.727C730 157.481 726.001 161.523 721.195 161.523C716.389 161.523 712.393 157.481 712.393 152.727Z" fill="#EBF0FE"/>
<path d="M268.51 160.857H251.187V104.895H268.51V160.857Z" fill="#EBF0FE"/>
<path d="M423.561 160.857H406.239V139.985H372.925V160.857H355.507V104.895H372.925V125.483H406.239V104.895H423.561V160.857Z" fill="#EBF0FE"/>
<path d="M454.686 160.857L465.155 146.356H488.523L474.057 126.244L448.784 160.857H427.275L463.159 111.124C464.301 109.46 465.871 108.034 467.918 106.797C470.152 105.466 472.295 104.8 474.342 104.8C476.482 104.8 478.625 105.466 480.766 106.797C482.671 107.986 484.239 109.413 485.431 111.124L520.457 160.857H454.686Z" fill="#EBF0FE"/>
<path d="M570.762 104.895L559.482 119.397H542.729V160.857H525.31V119.397H502.23L513.414 104.895H570.762Z" fill="#EBF0FE"/>
<path d="M643.336 160.857H626.014V139.985H592.7V160.857H575.283V104.895H592.7V125.483H626.014V104.895H643.336V160.857Z" fill="#EBF0FE"/>
<path d="M337.898 120.871H298.302C296.161 120.871 295.114 121.632 295.114 123.106C295.114 124.627 296.161 125.34 298.302 125.34H326.809C333.615 125.34 339.278 127.005 343.799 130.285C348.511 133.803 350.89 138.368 350.89 143.931C350.89 149.446 348.511 153.963 343.752 157.339C339.278 160.62 292.116 161.19 285.262 161.19L246 188.291L286.69 147.782H326.762C328.57 147.782 330.188 147.449 331.664 146.831C333.52 146.07 334.472 144.977 334.472 143.646C334.472 142.267 333.52 141.173 331.664 140.46C330.283 139.937 328.618 139.699 326.762 139.699H298.255C291.925 139.699 286.643 138.273 282.407 135.373C277.838 132.282 275.554 128.146 275.554 123.011C275.554 117.828 277.838 113.692 282.407 110.601C286.643 107.701 328.142 107.463 334.472 107.463L378.779 68L337.898 120.871Z" fill="#EBF0FE"/>
<path fill-rule="evenodd" clip-rule="evenodd" d="M231.229 78.5842C231.229 68.5808 225.892 59.3372 217.229 54.3355L129.614 3.75129C120.951 -1.25043 110.278 -1.25043 101.614 3.75129L14 54.3355C5.33677 59.3372 0 68.5808 0 78.5842V179.753C0 189.756 5.33677 199 14 204.001L101.614 254.585C110.278 259.587 120.951 259.587 129.614 254.585L217.229 204.001C225.892 199 231.229 189.756 231.229 179.753V78.5842ZM213.042 89.0842C213.042 79.0808 207.705 69.8372 199.042 64.8355L129.614 24.7513C120.951 19.7496 110.278 19.7496 101.614 24.7513L32.1865 64.8355C23.5233 69.8372 18.1865 79.0808 18.1865 89.0842V169.253C18.1865 179.256 23.5233 188.5 32.1865 193.501L101.614 233.585C110.278 238.587 120.951 238.587 129.614 233.585L199.042 193.501C207.705 188.5 213.042 179.256 213.042 169.253V89.0842Z" fill="#64FFDA"/>
<path d="M169 161.516C169 169.643 165.363 173.668 158.014 173.668C152.71 173.668 147.709 171.694 142.936 167.744L90.7315 123.998V173.061C79.9017 173.061 73.8298 173.061 63 173.061C63 142.659 63 125.614 63 95.2128C63 91.8711 64.061 89.2126 66.1823 87.0105C68.3039 84.8838 71.259 83.8206 75.1232 83.8206C80.1237 83.8206 84.8214 85.5674 89.0647 89.1367L141.269 132.884V83.6684H169V161.516Z" fill="#64FFDA"/>
</svg>
