<svg version="1.2" xmlns="http://www.w3.org/2000/svg" viewBox="0 0 774 611" width="774" height="611">
	<title>undraw_web_developer_re_h7ie-svg</title>
	<style>
		.s0 { fill: #e6e6e6 } 
		.s1 { fill: #ffffff } 
		.s2 { fill: #14b8a6 } 
		.s3 { fill: #f2f2f2 } 
		.s4 { fill: #9f616a } 
		.s5 { fill: #3f3d56 } 
		.s6 { fill: #2f2e41 } 
		.s7 { fill: #cbcbcb } 
		.s8 { opacity: .1;fill: #000000 } 
		.s9 { fill: #f1f1f1 } 
	</style>
	<path id="e81a7c33-c795-457d-8abc-c4a3c260cd56" class="s0" d="m0.9 12.7h463.6v220h-463.6z"/>
	<path id="be98c830-918a-42d1-b1b0-0085d5874e90" class="s1" d="m14.1 31.6h437.2v183.5h-437.2z"/>
	<path id="ea07d9fd-7a34-4098-acd7-056fd1871281" class="s2" d="m1.1 0h463.6v19.7h-463.6z"/>
	<path id="b9ed5a45-8896-4ed9-86b4-15f853c9a185" class="s1" d="m450.1 7.9c2 0 3.6 1.7 3.6 3.7 0 2-1.6 3.6-3.6 3.6-2 0-3.7-1.6-3.7-3.6 0-2 1.7-3.7 3.7-3.7z"/>
	<path id="a9233a38-f8ba-48e0-88f3-496fd4836d40" class="s1" d="m436.2 7.9c2 0 3.7 1.7 3.7 3.7 0 2-1.7 3.6-3.7 3.6-2 0-3.6-1.6-3.6-3.6 0-2 1.6-3.7 3.6-3.7z"/>
	<path id="aa82180f-a6a9-4f5f-82fc-e73106f4ad92" class="s1" d="m422.4 7.9c2 0 3.6 1.7 3.6 3.7 0 2-1.6 3.6-3.6 3.6-2 0-3.7-1.6-3.7-3.6 0-2 1.7-3.7 3.7-3.7z"/>
	<path id="Layer" class="s3" d="m117.1 61.3h72.6v124.1h-72.6z"/>
	<path id="Layer" class="s2" d="m201.8 61.3h146.6v34.2h-146.6z"/>
	<path id="Layer" class="s3" d="m201.8 105h146.6v36.7h-146.6z"/>
	<path id="Layer" class="s3" d="m201.8 151.3h146.6v34.1h-146.6z"/>
	<path id="Layer" class="s4" d="m552.8 367.1c0-2.5 0.5-5 1.5-7.3 1-2.3 2.5-4.4 4.4-6.1 1.9-1.6 4.1-2.9 6.5-3.7 2.4-0.8 4.9-1 7.4-0.8q0.3 0.1 0.6 0.1 0.3 0.1 0.6 0.1 0.3 0.1 0.6 0.1 0.2 0.1 0.5 0.2l60.5-51.9-3.6-19.4 29.8-9.7 9 31.2c0.5 1.9 0.7 3.8 0.6 5.7 0 2-0.4 3.9-1.1 5.7-0.7 1.8-1.7 3.5-2.9 5-1.2 1.5-2.7 2.8-4.3 3.8l-74.4 47.1q0 0.2 0 0.4 0 0.2 0 0.4 0 0.3 0 0.5-0.1 0.2-0.1 0.4c-0.3 2.5-1 4.9-2.3 7.1-1.3 2.2-3 4.1-5.1 5.5-2 1.5-4.3 2.5-6.8 3-2.5 0.5-5 0.5-7.5-0.1q-0.2 0-0.5-0.1-0.3-0.1-0.5-0.1-0.3-0.1-0.6-0.2-0.2-0.1-0.5-0.2-2.6-0.9-4.7-2.6-2.2-1.6-3.8-3.9-1.6-2.2-2.4-4.8-0.9-2.7-0.9-5.4z"/>
	<path id="Layer" class="s5" d="m710.9 428.8c2.4 1 4.7 2.5 6.6 4.4 1.8 1.8 3.3 4.1 4.4 6.5 1 2.5 1.5 5.1 1.5 7.8v3.3c0 2.6-0.5 5.3-1.5 7.7-1.1 2.5-2.6 4.7-4.4 6.6-1.9 1.9-4.2 3.4-6.6 4.4-2.5 1-5.1 1.5-7.8 1.6h-146.1c-2.7 0-5.3-0.6-7.8-1.6-2.5-1-4.7-2.5-6.6-4.4-1.9-1.9-3.4-4.1-4.4-6.6-1-2.4-1.5-5.1-1.5-7.7v-3.3q0-1.8 0.3-3.5 0.3-1.7 0.9-3.4 0.6-1.7 1.5-3.2 0.9-1.5 2-2.9 0.4-0.4 0.8-0.9 0.4-0.4 0.8-0.8 0.4-0.4 0.9-0.8 0.4-0.4 0.9-0.7c0 0 80.4-1.9 80.4-4.1h77.9c2.7 0 5.3 0.5 7.8 1.6z"/>
	<path id="Layer" class="s5" d="m618.3 470.2h21.1v136.4h-21.1z"/>
	<path id="Layer" class="s5" d="m629.7 585.5c39.4 0 71.4 20.3 71.4 22.8 0 2.6-32 1-71.4 1-39.5 0-71.5 1.6-71.5-1 0-2.5 32-22.8 71.5-22.8z"/>
	<path id="Layer" class="s4" d="m577.3 589.9h-19.9l-9.5-51.6h29.4v51.6z"/>
	<path id="Layer" class="s6" d="m582.4 609.2h-64.2v-0.8c0-3.3 0.6-6.5 1.9-9.6 1.2-3 3.1-5.7 5.4-8.1 2.3-2.3 5.1-4.1 8.1-5.4 3-1.2 6.3-1.9 9.6-1.9h39.2z"/>
	<path id="Layer" class="s7" d="m547.5 557.9l-39.7-89c-1.6-3.7-2.5-7.7-2.7-11.8-0.2-4 0.4-8.1 1.7-11.9 1.3-3.9 3.3-7.4 6-10.5 2.6-3.1 5.8-5.7 9.4-7.7l86-46.1 39.3-3.4 36.3-3.3 0.2 0.5c0.3 0.5 8.1 14 2.9 28.8-4 11.1-14.4 19.9-30.9 25.9-38.5 14.2-83 26.2-100.3 30.8q-0.6 0.1-1.1 0.4-0.6 0.2-1 0.6-0.5 0.4-0.9 0.8-0.4 0.5-0.6 1-0.3 0.5-0.5 1.1-0.1 0.6-0.2 1.2 0 0.5 0.1 1.1 0.1 0.6 0.3 1.2l36.8 82.8c0.4 1 0.5 2.2 0.4 3.3-0.1 1.1-0.5 2.2-1.1 3.1-0.6 1-1.4 1.8-2.3 2.3-1 0.6-2.1 1-3.2 1.1l-27.5 2q-0.4 0-0.7 0-1.1 0-2.1-0.3-1-0.3-1.9-0.8-0.9-0.6-1.6-1.4-0.6-0.8-1.1-1.8z"/>
	<path id="Layer" class="s4" d="m590.3 589.9h-19.9l-9.5-51.6h29.4v51.6z"/>
	<path id="Layer" class="s6" d="m595.4 609.2h-64.2v-0.8c0-3.3 0.6-6.5 1.9-9.6 1.2-3 3.1-5.7 5.4-8.1 2.3-2.3 5.1-4.1 8.1-5.4 3-1.2 6.3-1.9 9.6-1.9h39.2z"/>
	<path id="Layer" class="s7" d="m562.1 562.8l-39.7-89c-1.6-3.7-2.5-7.7-2.7-11.8-0.2-4.1 0.4-8.1 1.7-12 1.3-3.8 3.4-7.4 6-10.5 2.6-3.1 5.8-5.7 9.4-7.6l86-46.2 39.3-3.3 28.4-2.5v-0.3c0.3 0.5 8.1 14 2.9 28.7-4 11.2-6.3 20-22.8 26-38.5 14.1-83 26.2-100.3 30.7q-0.6 0.2-1.1 0.4-0.6 0.3-1 0.7-0.5 0.3-0.9 0.8-0.3 0.5-0.6 1-0.3 0.5-0.5 1.1-0.1 0.5-0.2 1.1 0 0.6 0.1 1.2 0.1 0.6 0.3 1.1l36.8 82.9c0.4 1 0.6 2.1 0.4 3.3-0.1 1.1-0.5 2.1-1 3.1-0.6 0.9-1.5 1.7-2.4 2.3-1 0.6-2 1-3.2 1.1l-27.5 2q-0.4 0-0.7 0-1.1 0-2.1-0.3-1-0.3-1.9-0.9-0.9-0.6-1.5-1.4-0.7-0.8-1.2-1.7z"/>
	<path id="Layer" class="s6" d="m636.9 381.6c-1.9-1.4-29.2 13-34.1 1.6 22.8-56.8 7.1-81.4 21-114q1.9-4.2 4.6-7.9 2.7-3.7 6.2-6.7 3.5-3 7.6-5.1 4.1-2.1 8.5-3.3l36.1-1.8 0.2 0.1c4.1 1.9 7.8 4.6 11 7.7 3.2 3.2 5.9 6.8 8 10.8 2.1 4.1 3.5 8.4 4.2 12.8 0.7 4.5 0.7 9-0.1 13.5-0.1 35.4-21.3 62.5-13.9 88.2q0.2 0.8 0.3 1.7 0.1 0.8 0 1.6-0.1 0.9-0.4 1.7-0.3 0.8-0.7 1.5-0.4 0.7-0.9 1.3-0.6 0.6-1.2 1.1-0.7 0.5-1.4 0.8-0.8 0.3-1.6 0.5l-47.7-6.3q-0.8 0.2-1.6 0.2-0.9 0-1.8-0.2-0.8-0.1-1.6-0.5-0.8-0.3-1.5-0.8z"/>
	<path id="Layer" class="s4" d="m674.8 151.1c22 0 39.9 17.8 39.9 39.9 0 22.1-17.9 39.9-39.9 39.9-22.1 0-39.9-17.8-39.9-39.9 0-22.1 17.8-39.9 39.9-39.9z"/>
	<path id="Layer" class="s6" d="m687.5 227.6c-2.1 0.9-6.5-16-4.5-19.3 2.9-5.1 2.7-5 4.6-8.3 1.9-3.4 2.4-7.9-0.1-10.8-2.5-3-8.3-2.6-9.4 1.1 0.7-7-6.1-12.6-13-14.1-6.8-1.6-14-0.6-20.8-2-8-1.7-16.3-8.3-13.1-17.1q0.2-0.5 0.4-1.1 0.3-0.5 0.6-1 0.3-0.5 0.7-0.9 0.3-0.5 0.7-0.9c3.7-4.2 8.8-5.9 13.8-7.6 10.5-3.6 21.2-7.2 32.2-6.8 18.1 0.7 35.2 13.2 41.3 30.3q0.3 0.7 0.6 1.6 0.2 0.8 0.4 1.6 0.3 0.8 0.4 1.6 0.2 0.9 0.4 1.7c3.8 20.3-8 40.4-27.2 48.1z"/>
	<path id="Layer" class="s5" d="m478.8 290.8q0.5-0.4 1-0.4 0.6-0.1 1.1 0.2 0.4 0.3 0.6 0.8l32.9 80.8q0 0.1 0 0.1 0.1 0.1 0.1 0.2 0 0.1 0 0.2 0 0.1 0 0.2l-1.5 36c0 0.4-0.2 0.7-0.4 1-0.3 0.3-0.6 0.5-1 0.6-0.4 0-0.8 0-1.1-0.2-0.3-0.2-0.6-0.5-0.8-0.9l-35.8-89.6q-0.1-0.1-0.1-0.2 0-0.1 0-0.2-0.1-0.2-0.1-0.3 0.1-0.1 0.1-0.2l4.5-27.2q0.1-0.5 0.5-0.9z"/>
	<path id="Layer" class="s2" d="m480.9 293.8l31.6 78.8-4.1 26.4-31.9-81.8 4.4-23.4z"/>
	<path id="Layer" class="s5" d="m620.2 409c-0.8 3.1-103.6 6.4-104.7 5.5q-0.4-0.5-0.7-0.9-0.3-0.5-0.6-1-0.4-0.5-0.6-1-0.3-0.4-0.6-1c-1.1-1.9-2.1-3.8-2.1-3.8l1.7-32.5 101.4-10.9c0 0 4.4 27.2 5.8 39.6q0.2 0.8 0.2 1.5 0.1 0.8 0.2 1.5 0 0.8 0 1.5 0 0.8 0 1.5z"/>
	<path id="Layer" class="s8" d="m525.9 377.7l42.8-3 2 27.8-44.8 3.2v-28z"/>
	<path id="Layer" class="s8" d="m584.3 382.6l25.9-1.9 0.8 12-24.9 1.7-2.1-11.9 0.3 0.1z"/>
	<path id="Layer" class="s8" d="m620.2 409c-0.8 3.1-103.6 6.4-104.7 5.5q-0.4-0.5-0.7-0.9-0.3-0.5-0.6-1-0.4-0.5-0.6-1-0.3-0.4-0.6-1l106.8-7.6q0.2 0.8 0.2 1.5 0.1 0.8 0.2 1.5 0 0.8 0 1.5 0 0.8 0 1.5z"/>
	<path id="Layer" class="s4" d="m661.5 360.5l-86.8 16.1q0 0.2-0.1 0.5-0.1 0.2-0.2 0.4-0.1 0.2-0.2 0.3-0.1 0.2-0.2 0.4-0.9 1.7-2.1 3.1-1.2 1.5-2.7 2.6-1.5 1.2-3.2 2-1.7 0.9-3.5 1.3-1.8 0.5-3.7 0.5-1.9 0.1-3.8-0.2-1.8-0.4-3.6-1.1-1.7-0.7-3.3-1.8c-3.8-2.6-6.4-6.5-7.3-11-1-4.4-0.2-9.1 2.1-13 2.4-3.9 6.2-6.7 10.6-7.9 4.4-1.3 9.1-0.7 13.1 1.4q0.2 0.1 0.5 0.3 0.3 0.1 0.5 0.3 0.3 0.2 0.5 0.3 0.3 0.2 0.5 0.4l75.4-25.8 3.8-19.4 31.3 2.1-3.3 32.5c-0.2 1.9-0.6 3.8-1.4 5.5-0.8 1.7-1.9 3.3-3.1 4.7-1.3 1.4-2.8 2.6-4.5 3.5-1.6 0.9-3.4 1.6-5.3 2z"/>
	<path id="Layer" class="s6" d="m680.1 326.8l-45.4-14.9 10.6-30.5c0.7-2 1.8-3.8 3.1-5.5 1.3-1.6 3-3 4.8-4.1 1.8-1.1 3.8-1.8 5.9-2.2 2.1-0.4 4.2-0.4 6.3-0.1 2.1 0.4 4.2 1.1 6 2.2 1.9 1 3.6 2.4 4.9 4.1 1.4 1.6 2.5 3.5 3.2 5.5 0.7 2 1.1 4.2 1.1 6.3z"/>
	<path id="Layer" class="s7" d="m391.3 610.5q-0.3-0.3-0.3-0.7 0-0.4 0.3-0.7 0.3-0.3 0.7-0.3h381q0.4 0 0.7 0.3 0.3 0.3 0.3 0.7 0 0.4-0.3 0.7-0.3 0.3-0.7 0.3h-381q-0.4 0-0.7-0.3z"/>
	<path id="Layer" class="s9" d="m283.6 575.1c0 0-8.2 20.6-26.4 30-18.3 9.5-39.8 4.2-39.8 4.2 0 0 8.1-20.5 26.4-30 18.3-9.5 39.8-4.2 39.8-4.2z"/>
	<path id="Layer" class="s9" d="m249.6 586.1c-10.9 17.5-32 23.9-32 23.9 0 0-3.6-21.9 7.4-39.3 10.9-17.5 32-23.9 32-23.9 0 0 3.5 21.9-7.4 39.3z"/>
	<path id="Layer" class="s7" d="m183.3 610.1q-0.3-0.3-0.3-0.7 0-0.4 0.3-0.7 0.3-0.3 0.7-0.3h114q0.4 0 0.7 0.3 0.3 0.3 0.3 0.7 0 0.4-0.3 0.7-0.3 0.3-0.7 0.3h-114q-0.4 0-0.7-0.3z"/>
</svg>