<svg width="232" height="267" viewBox="0 0 232 267" fill="none" xmlns="http://www.w3.org/2000/svg">
<path fill-rule="evenodd" clip-rule="evenodd" d="M231.229 82.9158C231.229 72.9124 225.892 63.6688 217.229 58.6671L129.614 8.0829C120.951 3.08119 110.278 3.08119 101.614 8.0829L14 58.6671C5.33676 63.6688 -1.52588e-05 72.9124 -1.52588e-05 82.9158V184.084C-1.52588e-05 194.088 5.33676 203.331 14 208.333L101.614 258.917C110.278 263.919 120.951 263.919 129.614 258.917L217.229 208.333C225.892 203.331 231.229 194.088 231.229 184.084V82.9158ZM213.042 93.4158C213.042 83.4124 207.705 74.1688 199.042 69.1671L129.614 29.0829C120.951 24.0812 110.278 24.0812 101.614 29.0829L32.1865 69.1671C23.5233 74.1688 18.1865 83.4124 18.1865 93.4158V173.584C18.1865 183.588 23.5233 192.831 32.1865 197.833L101.614 237.917C110.278 242.919 120.951 242.919 129.614 237.917L199.042 197.833C207.705 192.831 213.042 183.588 213.042 173.584V93.4158Z" fill="#64FFDA"/>
<path d="M169 165.848C169 173.975 165.363 178 158.014 178C152.71 178 147.709 176.025 142.936 172.076L90.7315 128.329V177.392C79.9017 177.392 73.8298 177.392 63 177.392C63 146.991 63 129.946 63 99.5444C63 96.2028 64.061 93.5443 66.1823 91.3421C68.3039 89.2154 71.259 88.1522 75.1232 88.1522C80.1237 88.1522 84.8214 89.899 89.0647 93.4684L141.269 137.215V88H169V165.848Z" fill="#64FFDA"/>
</svg>
